<svg width="57" height="76" viewBox="0 0 57 76" fill="none" xmlns="http://www.w3.org/2000/svg">
<path d="M51.31 14.1623C43.4144 9.46699 30.3943 20.7764 27.086 23.8585C27.7534 21.9039 28.9095 20.1507 30.4455 18.7642C30.4815 18.736 30.5103 18.6999 30.5296 18.6585C30.5488 18.6172 30.558 18.5719 30.5563 18.5264C30.5564 18.4826 30.5456 18.4395 30.5247 18.401C30.5039 18.3624 30.4737 18.3297 30.437 18.3057C29.7056 17.8134 28.8469 17.5421 27.9643 17.5245C28.4185 16.9673 29.002 16.5285 29.6645 16.246C30.3271 15.9635 31.0487 15.8457 31.7671 15.9028C31.8201 15.9106 31.8743 15.9027 31.9228 15.8801C31.9713 15.8574 32.0121 15.821 32.04 15.7755C32.0669 15.729 32.0811 15.6763 32.0811 15.6227C32.0811 15.569 32.0669 15.5163 32.04 15.4698C31.6914 14.9448 31.2098 14.5206 30.6439 14.2403C30.078 13.9601 29.4477 13.8335 28.8169 13.8736C29.9339 13.0245 32.4663 12.7189 33.4895 12.6849C33.5441 12.6844 33.5973 12.668 33.6427 12.6379C33.6881 12.6077 33.7238 12.5651 33.7453 12.5151C33.7662 12.4664 33.7733 12.413 33.7658 12.3606C33.7583 12.3082 33.7364 12.2588 33.7026 12.2179C32.7152 11.0743 31.3154 10.3637 29.806 10.2396C31.2214 8.54152 35.4165 8.03207 35.4591 8.02358C35.519 8.019 35.5757 7.9949 35.6204 7.95499C35.6651 7.91508 35.6953 7.8616 35.7064 7.80284C35.7204 7.76996 35.7278 7.73462 35.7281 7.69889C35.7284 7.66315 35.7217 7.62772 35.7082 7.59459C35.6948 7.56147 35.6749 7.53131 35.6497 7.50585C35.6245 7.48039 35.5945 7.46013 35.5614 7.44623C34.2307 6.60239 32.7219 6.07642 31.1532 5.90943C32.8585 3.80377 38.2814 2.5132 38.3411 2.5132C38.3989 2.49972 38.4512 2.46886 38.4909 2.42482C38.5305 2.38078 38.5556 2.32568 38.5628 2.26697C38.5695 2.20905 38.5584 2.15046 38.531 2.09894C38.5036 2.04741 38.4612 2.00535 38.4093 1.97829C34.777 0.0933849 30.3432 1.92735 30.1385 1.97829C25.0226 4.52547 24.7924 12.9736 25.3295 18.8236C23.3173 11.717 18.9431 0.58585 11.2096 0C10.9538 0 4.92547 -1.98383e-05 1.61716 3.88017C1.58377 3.9274 1.56585 3.98374 1.56585 4.0415C1.56585 4.09925 1.58377 4.1556 1.61716 4.20282C1.64698 4.25358 1.69123 4.2944 1.74435 4.32009C1.79748 4.34579 1.85707 4.35522 1.91557 4.34717C1.99231 4.34717 9.19729 3.18395 12.1475 4.96697C10.3478 5.8962 8.80028 7.24488 7.63692 8.89811C7.60207 8.94794 7.58339 9.00721 7.58339 9.06793C7.58339 9.12865 7.60207 9.1879 7.63692 9.23773C7.67162 9.28631 7.72058 9.32303 7.77707 9.3428C7.83356 9.36256 7.8948 9.3644 7.9524 9.34811C8.01208 9.34811 13.3582 7.86227 15.8139 9.30567C14.9493 9.723 14.1773 10.3083 13.5432 11.0272C12.9092 11.746 12.4259 12.5839 12.1219 13.4915C12.1043 13.5431 12.1022 13.5987 12.1158 13.6515C12.1294 13.7043 12.1582 13.752 12.1986 13.7887C12.2368 13.827 12.2856 13.8531 12.3388 13.8637C12.3919 13.8743 12.447 13.8689 12.4971 13.8481C13.7675 13.3811 17.0758 12.4557 18.7812 13.084C17.996 13.3114 17.2881 13.7479 16.7337 14.3464C16.1793 14.9448 15.7993 15.6826 15.6348 16.4802C15.6266 16.5334 15.6333 16.5877 15.6544 16.6372C15.6755 16.6867 15.7101 16.7294 15.7542 16.7604C15.8009 16.7872 15.8538 16.8013 15.9077 16.8013C15.9616 16.8013 16.0145 16.7872 16.0612 16.7604C16.9046 16.328 17.8441 16.1152 18.7924 16.1419C19.7406 16.1687 20.6666 16.434 21.4841 16.9132C20.4195 17.3425 19.508 18.0787 18.8664 19.0274C18.8455 19.0666 18.8346 19.1103 18.8346 19.1547C18.8346 19.1991 18.8455 19.2429 18.8664 19.2821C18.8822 19.324 18.9073 19.3617 18.9397 19.3926C18.9722 19.4235 19.0113 19.4466 19.054 19.4604C21.5637 20.357 23.7966 21.8871 25.5342 23.901C21.3221 22.2793 7.03151 17.3972 2.01789 23.901C1.89851 24.0793 -0.923781 28.3161 0.312572 32.468C0.329605 32.5236 0.363148 32.5729 0.408798 32.6093C0.454447 32.6456 0.510112 32.6674 0.568411 32.6717H0.611033C0.662145 32.6663 0.710968 32.6478 0.752796 32.6181C0.794623 32.5883 0.828011 32.5483 0.84975 32.5019C0.84975 32.4425 3.33954 26.9746 5.91456 25.7095C5.76097 27.3842 6.00635 29.0714 6.63079 30.634C6.6506 30.6899 6.68767 30.738 6.73669 30.7716C6.78572 30.8051 6.84417 30.8224 6.90365 30.8208C6.96492 30.8199 7.02431 30.7997 7.07333 30.7631C7.12235 30.7265 7.15846 30.6753 7.17648 30.617C7.17648 30.5746 8.58337 26.2614 10.6809 25.1491C10.5875 25.9434 10.6524 26.7482 10.8719 27.5175C11.0913 28.2867 11.4611 29.0054 11.9599 29.6321C11.9941 29.6738 12.0396 29.7047 12.091 29.7213C12.1424 29.7378 12.1976 29.7393 12.2498 29.7255C12.3023 29.7149 12.3506 29.6891 12.3885 29.6513C12.4264 29.6136 12.4523 29.5656 12.463 29.5132C12.7102 28.4434 13.5373 25.8113 14.7055 24.8434C14.5272 25.4951 14.5265 26.1824 14.7033 26.8345C14.8801 27.4865 15.2281 28.08 15.7116 28.5538C15.7514 28.5894 15.8001 28.6138 15.8526 28.6242C15.9051 28.6347 15.9595 28.6309 16.01 28.6132C16.061 28.5933 16.1054 28.5598 16.1385 28.5163C16.1716 28.4729 16.192 28.4212 16.1976 28.367C16.2874 27.5997 16.5633 26.8656 17.0015 26.228C17.4397 25.5905 18.0271 25.0687 18.7129 24.7076C18.5431 25.6347 18.6498 26.5911 19.0199 27.4585C19.037 27.4993 19.0637 27.5352 19.0979 27.5633C19.1321 27.5914 19.1726 27.6108 19.216 27.6198C19.259 27.6293 19.3037 27.6289 19.3465 27.6186C19.3894 27.6083 19.4293 27.5884 19.4633 27.5604C20.137 27.0342 20.8729 26.5923 21.6546 26.2444C21.3132 26.5581 21.0481 26.9452 20.8797 27.3763C20.7112 27.8074 20.6438 28.2711 20.6826 28.7321C20.752 29.5415 21.1412 30.2903 21.7647 30.814C22.3883 31.3378 23.1951 31.5937 24.0079 31.5255C24.6762 31.4671 25.306 31.1894 25.7985 30.7359C26.5233 32.6208 29.2944 41.6548 24.6048 59.6038C18.2781 61.4972 17.2719 63.484 16.3937 65.2416C16.1089 65.8802 15.7295 66.4726 15.2682 66.9991C14.8225 67.6266 14.5588 68.3642 14.5062 69.131C14.4535 69.8978 14.6139 70.6643 14.9698 71.3463C16.1379 73.7746 19.9834 76.4406 31.6307 75.4642C39.6457 74.785 44.5825 72.9171 46.3049 69.9114C46.6545 69.3357 46.8643 68.6867 46.9176 68.016C46.9709 67.3453 46.8662 66.6715 46.6119 66.0482C44.9065 61.9897 40.5409 58.7038 36.38 58.3048C35.7149 51.7585 33.6771 36.4161 28.851 30.2859C29.0551 30.3071 29.2609 30.3071 29.4649 30.2859C30.2784 30.2146 31.0304 29.8252 31.5562 29.203C32.082 28.5808 32.3388 27.7764 32.2702 26.9661C32.2172 26.3571 31.9815 25.778 31.5937 25.3041C31.206 24.8302 30.6841 24.4833 30.0959 24.3085C31.7384 24.1664 33.3932 24.3189 34.9816 24.7585C35.0201 24.7773 35.0624 24.787 35.1053 24.787C35.1481 24.787 35.1904 24.7773 35.2289 24.7585C35.2667 24.7349 35.2982 24.7025 35.3204 24.664C35.3427 24.6255 35.3552 24.5822 35.3568 24.5378C35.3782 23.4818 35.0812 22.4437 34.5041 21.5576C35.3706 21.639 36.203 21.9339 36.9264 22.4156C37.6499 22.8973 38.2415 23.5508 38.648 24.317C38.6716 24.3648 38.708 24.4051 38.7531 24.4335C38.7983 24.462 38.8504 24.4775 38.9039 24.4783C38.9573 24.4775 39.0094 24.462 39.0546 24.4335C39.0997 24.4051 39.1361 24.3648 39.1596 24.317C39.4691 23.6297 39.585 22.8716 39.4948 22.1237C39.4047 21.3759 39.112 20.6666 38.648 20.0717C40.251 20.5387 42.2292 22.9585 42.9113 23.9774C42.9406 24.0195 42.9804 24.0533 43.0267 24.0757C43.073 24.098 43.1243 24.108 43.1757 24.1047V24.1047C43.2298 24.0967 43.2804 24.0732 43.3213 24.037C43.3622 24.0008 43.3916 23.9535 43.4059 23.901C43.6585 23.0589 43.7418 22.1755 43.6511 21.3014C43.5604 20.4272 43.2974 19.5794 42.8772 18.8066C45.4949 19.0613 48.7179 22.9755 48.752 23.0519C48.7903 23.0982 48.8417 23.1319 48.8995 23.1486C48.9573 23.1652 49.0189 23.1641 49.076 23.1453C49.1344 23.1264 49.1847 23.0885 49.2187 23.0376C49.2527 22.9868 49.2686 22.926 49.2636 22.8651C49.2708 21.0034 48.8324 19.1669 47.9846 17.5076C51.148 17.7453 55.9485 22.4151 55.9996 22.4661C56.0415 22.5072 56.0953 22.5343 56.1534 22.5434C56.2115 22.5525 56.2711 22.5433 56.3236 22.517C56.3764 22.4927 56.4203 22.4527 56.4493 22.4025C56.4783 22.3524 56.491 22.2945 56.4856 22.2368C56.119 17.5076 51.5232 14.3066 51.31 14.1623ZM36.056 61.3784C35.9444 62.2705 35.577 63.1117 34.9979 63.8013C34.4187 64.491 33.6523 64.9999 32.7903 65.2671C30.3687 66.1161 26.9496 65.5557 25.3295 64.0444C24.9996 63.7776 24.7529 63.4226 24.6185 63.021C24.4841 62.6195 24.4675 62.188 24.5707 61.7774L24.7753 61.0302C26.8725 61.8064 29.1061 62.1501 31.3408 62.0406C33.0813 61.9708 34.7277 61.2348 35.9366 59.9859C36.0133 60.7586 36.0474 61.251 36.056 61.3784V61.3784ZM35.8599 59.1708C32.9353 63.085 26.2589 60.9539 24.9203 60.4699C25.3125 59.0265 25.6564 57.6397 25.952 56.3095C27.4589 57.2359 29.2282 57.6473 30.9912 57.4812C32.5891 57.3124 34.1311 56.7996 35.5103 55.9784C35.6552 57.218 35.7746 58.3048 35.8599 59.1708ZM35.4335 55.3585C30.3176 58.4152 26.8047 56.2076 26.0543 55.7067C26.3442 54.3736 26.583 53.1001 26.7961 51.8859C28.1709 52.3279 29.6191 52.4981 31.0594 52.3868C32.3765 52.2829 33.6544 51.8915 34.8026 51.2406C35.0839 52.7095 35.2715 54.1444 35.4335 55.3585ZM26.907 51.3086C27.1201 50.035 27.2907 48.8123 27.4186 47.6661C28.5468 48.077 29.7517 48.2364 30.9486 48.1331C32.0668 48.0387 33.1515 47.7056 34.129 47.1566C34.3592 48.3368 34.5553 49.5 34.7344 50.6293C33.5516 51.2773 32.246 51.6724 30.9011 51.7894C29.5563 51.9063 28.2017 51.7426 26.924 51.3086H26.907ZM27.4782 47.0633C27.5891 45.9765 27.6744 44.9406 27.7255 43.9642C28.6888 44.2827 29.7068 44.404 30.7183 44.3208C31.6547 44.2377 32.5606 43.9477 33.3701 43.4717C33.6003 44.4821 33.822 45.5095 34.0181 46.5199C33.0403 47.0885 31.9475 47.4331 30.8192 47.5286C29.6909 47.624 28.5555 47.468 27.4953 47.0718L27.4782 47.0633ZM27.7596 43.3614C27.7596 42.4529 27.8108 41.5953 27.8022 40.8142C28.4321 40.9283 29.0742 40.9597 29.7122 40.9076C30.6967 40.8414 31.6424 40.5001 32.4407 39.9227C32.7221 40.9076 32.9864 41.918 33.2252 42.9368C32.4029 43.3982 31.4896 43.676 30.5488 43.7508C29.6079 43.8255 28.662 43.6956 27.7767 43.3699L27.7596 43.3614ZM27.8022 40.1944C27.8022 39.184 27.734 38.2585 27.6573 37.4095C28.1157 37.5128 28.5875 37.5443 29.0557 37.5029C29.9006 37.427 30.7114 37.1345 31.409 36.6538C31.7074 37.5029 31.9973 38.3519 32.2617 39.2774C31.6272 39.7322 30.9041 40.0495 30.139 40.209C29.3738 40.3684 28.5836 40.3663 27.8193 40.2029L27.8022 40.1944ZM27.6062 36.7982C27.5323 36.085 27.447 35.4312 27.3503 34.8368C27.6197 34.8631 27.891 34.8631 28.1604 34.8368C28.9476 34.7821 29.6984 34.4855 30.3091 33.9878C30.6245 34.6585 30.9145 35.3717 31.2044 36.1104C30.7007 36.4915 30.1159 36.7524 29.495 36.8731C28.8742 36.9938 28.2338 36.9711 27.6232 36.8066L27.6062 36.7982ZM27.2566 34.251C27.1287 33.5717 27.0008 32.9859 26.8729 32.4849C27.0487 32.502 27.2257 32.502 27.4015 32.4849C28.045 32.4411 28.6508 32.1666 29.1068 31.7123C29.4627 32.2596 29.7872 32.8266 30.0789 33.4104C29.7041 33.7507 29.2578 34.0035 28.7725 34.1504C28.2872 34.2973 27.7752 34.3345 27.2736 34.2595L27.2566 34.251ZM26.7023 31.8736C26.5403 31.3132 26.3954 30.8972 26.2845 30.6085H26.6512C27.1034 30.5671 27.5406 30.425 27.9301 30.1925C28.2342 30.5181 28.5189 30.8611 28.7828 31.2198C28.5282 31.5018 28.2031 31.7115 27.8407 31.8278C27.4783 31.9442 27.0914 31.9629 26.7194 31.8821L26.7023 31.8736ZM27.8193 29.5896C27.5394 29.7807 27.2241 29.9144 26.8918 29.9829C26.5595 30.0514 26.2168 30.0534 25.8838 29.9887C25.356 29.8808 24.8774 29.6059 24.5194 29.205C24.1614 28.8041 23.9431 28.2987 23.8971 27.7642C23.8678 27.4434 23.9024 27.12 23.999 26.8125C24.0955 26.5051 24.2522 26.2197 24.4598 25.9727V25.9727C24.668 25.7154 24.9265 25.5029 25.2196 25.3482C25.5128 25.1935 25.8345 25.0997 26.1652 25.0727H26.5318C26.8481 25.0885 27.1582 25.1664 27.4441 25.3019C27.8399 25.4877 28.1797 25.7737 28.4296 26.1313C28.6795 26.4889 28.8307 26.9056 28.8681 27.3396C28.9114 27.7733 28.8388 28.2106 28.6576 28.6072C28.4764 29.0039 28.1931 29.3457 27.8364 29.5981L27.8193 29.5896ZM30.3773 2.56415C31.4711 2.14213 32.6193 1.8763 33.7879 1.77453C35.0091 1.64814 36.2432 1.79016 37.4032 2.19056C35.6211 2.68301 31.4346 4.02454 30.3773 6.07926C30.35 6.12251 30.3356 6.17252 30.3356 6.22358C30.3356 6.27464 30.35 6.32468 30.3773 6.36793C30.4039 6.41065 30.4419 6.44515 30.4871 6.46764C30.5322 6.49012 30.5828 6.4997 30.6331 6.49529C31.9967 6.52776 33.3316 6.89214 34.5212 7.55661C33.0035 7.8368 29.8913 8.60096 28.9875 10.35C28.9628 10.3926 28.9497 10.4409 28.9497 10.4901C28.9497 10.5393 28.9628 10.5876 28.9875 10.6302C29.0137 10.6738 29.0514 10.7095 29.0964 10.7334C29.1415 10.7574 29.1922 10.7686 29.2432 10.766C30.5551 10.7721 31.8196 11.2552 32.7988 12.1245C31.5028 12.2349 28.5782 12.6509 27.8278 14.0689C27.7991 14.1147 27.7839 14.1677 27.7839 14.2217C27.7839 14.2758 27.7991 14.3287 27.8278 14.3745C27.8583 14.421 27.9027 14.4567 27.9548 14.4766C28.0069 14.4964 28.0639 14.4993 28.1177 14.4849C28.6498 14.3785 29.1996 14.4 29.7216 14.5477C30.2436 14.6953 30.7227 14.9649 31.1191 15.334C30.2985 15.3484 29.4955 15.5731 28.7876 15.9866C28.0796 16.4 27.4906 16.9882 27.0775 17.6944C27.0504 17.7392 27.0361 17.7906 27.0361 17.8429C27.0361 17.8953 27.0504 17.9467 27.0775 17.9915C27.1069 18.0356 27.1479 18.0708 27.196 18.0933C27.2441 18.1157 27.2975 18.1246 27.3503 18.1189C28.1561 18.0635 28.9622 18.2216 29.6866 18.5774C28.2384 19.9721 27.1376 21.6847 26.4721 23.5783C25.8667 19.5028 23.9738 5.79057 30.4455 2.57264L30.3773 2.56415ZM19.4888 19.1208C20.1784 18.3057 21.0816 17.6973 22.098 17.3632C22.1491 17.3487 22.1953 17.3204 22.2314 17.2814C22.2675 17.2425 22.2922 17.1944 22.3026 17.1425C22.3109 17.0902 22.305 17.0366 22.2855 16.9873C22.266 16.9381 22.2336 16.8949 22.1918 16.8623C21.3479 16.2323 20.3541 15.8314 19.3078 15.6989C18.2615 15.5664 17.1986 15.707 16.2232 16.1066C16.9138 13.984 19.3439 13.5595 19.4547 13.5085C19.5093 13.5016 19.5604 13.4784 19.6015 13.442C19.6426 13.4057 19.6717 13.3578 19.685 13.3047C19.6975 13.2514 19.6954 13.1956 19.6789 13.1433C19.6624 13.0911 19.6321 13.0442 19.5912 13.0075C18.0052 11.683 14.2279 12.7104 12.7699 13.1774C13.4837 11.6024 14.7735 10.3575 16.3767 9.69622C16.4251 9.67989 16.4682 9.6507 16.5013 9.61181C16.5343 9.57291 16.5561 9.52579 16.5642 9.47549C16.5729 9.426 16.5689 9.3751 16.5525 9.32759C16.5361 9.28007 16.5079 9.23748 16.4704 9.20378C14.5264 7.54812 10.2972 8.25284 8.50662 8.6519C9.60857 7.2191 11.0579 6.08845 12.7187 5.36603C12.7667 5.3489 12.8094 5.31948 12.8423 5.28073C12.8752 5.24197 12.8973 5.19526 12.9063 5.14529C12.9168 5.09579 12.9136 5.04439 12.8971 4.99656C12.8806 4.94872 12.8514 4.90622 12.8126 4.87358C10.5019 2.93773 4.71231 3.45564 2.58067 3.71885C5.80371 0.6113 11.1072 0.628294 11.1584 0.628294C20.4694 1.3415 24.8776 18.9594 25.8838 23.6547C24.1663 21.6518 21.9824 20.0981 19.523 19.1293L19.4888 19.1208ZM19.361 26.9746C19.1346 26.1405 19.1346 25.2615 19.361 24.4274C19.3768 24.377 19.378 24.3231 19.3644 24.272C19.3508 24.2209 19.323 24.1747 19.2842 24.1387C19.2471 24.1015 19.2003 24.0754 19.149 24.0634C19.0978 24.0514 19.0442 24.0539 18.9943 24.0708C18.1679 24.3641 17.431 24.8641 16.8547 25.5228C16.2783 26.1815 15.8817 26.9767 15.703 27.8321C15.3874 27.3374 15.1969 26.7738 15.1479 26.1897C15.0989 25.6056 15.1928 25.0184 15.4217 24.4783C15.4507 24.4341 15.4661 24.3825 15.4661 24.3297C15.4661 24.277 15.4507 24.2253 15.4217 24.1811C15.3851 24.1403 15.3377 24.1106 15.2848 24.0956C15.232 24.0806 15.176 24.0808 15.1232 24.0962C13.4691 24.5802 12.4459 27.5944 12.0793 28.8934C11.3406 27.6894 11.0792 26.2545 11.346 24.8689C11.3566 24.8201 11.3543 24.7695 11.3393 24.7219C11.3244 24.6742 11.2973 24.6313 11.2607 24.5972C11.2255 24.5599 11.1802 24.5335 11.1302 24.5215C11.0802 24.5094 11.0278 24.5121 10.9793 24.5293C8.95002 25.1151 7.50903 28.2651 6.92922 29.768C6.46005 28.3745 6.34003 26.888 6.57963 25.4378C6.59377 25.3885 6.5941 25.3364 6.58057 25.287C6.56704 25.2376 6.54017 25.1928 6.5029 25.1576C6.46658 25.1219 6.42121 25.0968 6.37165 25.0848C6.32208 25.0728 6.27018 25.0745 6.2215 25.0896C3.82554 25.8029 1.55746 29.9293 0.696278 31.6529C0.0738384 28.0104 2.47832 24.3934 2.49537 24.3679C3.94489 22.5 6.27266 21.6595 8.93295 21.4302C14.9442 20.9208 22.5755 23.5698 25.3978 24.6311C23.2264 24.9211 21.1565 25.7247 19.361 26.9746ZM24.3064 25.4038L24.1614 25.5396H23.9056L24.3064 25.4038ZM21.2112 28.8C21.1832 28.4738 21.2201 28.1452 21.3199 27.8332C21.4196 27.5212 21.5803 27.2319 21.7926 26.9818C22.0049 26.7318 22.2647 26.5259 22.557 26.376C22.8494 26.2262 23.1686 26.1353 23.4963 26.1085H23.7521V26.151C23.7521 26.1934 23.7095 26.2444 23.6839 26.2868C23.6256 26.4025 23.5744 26.5216 23.5305 26.6434L23.4793 26.8217C23.4448 26.9414 23.4191 27.0634 23.4025 27.1868V27.3481C23.3855 27.5317 23.3855 27.7165 23.4025 27.9C23.4156 28.0547 23.4413 28.208 23.4793 28.3585C23.4793 28.4095 23.4793 28.4604 23.5219 28.5113L23.6242 28.8L23.701 28.9613C23.7413 29.0461 23.7869 29.1284 23.8374 29.2076L23.9397 29.3689C23.9889 29.4432 24.043 29.5141 24.1017 29.5812L24.2296 29.7255C24.2907 29.7948 24.3562 29.86 24.4257 29.9208L24.5707 30.0396C24.6438 30.101 24.7207 30.1577 24.8009 30.2095L24.9458 30.3029C25.0687 30.3724 25.1971 30.432 25.3295 30.4812V30.4812C24.9355 30.8145 24.4465 31.0164 23.9312 31.0585C23.5971 31.0899 23.26 31.0541 22.94 30.9534C22.6201 30.8526 22.3237 30.6889 22.0684 30.4719C21.8132 30.255 21.6042 29.9892 21.4541 29.6903C21.3039 29.3914 21.2155 29.0656 21.1942 28.7321L21.2112 28.8ZM46.0662 66.4048C46.2839 66.9553 46.3702 67.5485 46.3184 68.1379C46.2667 68.7273 46.0781 69.2966 45.7677 69.801C44.6508 71.7369 41.2742 74.2246 31.5539 75.0567C19.6167 76.0671 16.3511 73.1123 15.4558 71.2529C15.1557 70.6736 15.0165 70.0251 15.0525 69.3742C15.0884 68.7234 15.2983 68.094 15.6604 67.551C16.1614 66.9838 16.5752 66.3457 16.8883 65.6576C17.7409 63.9595 18.6362 62.2105 24.4002 60.419C24.2893 60.852 24.1699 61.268 24.0506 61.7265C23.9099 62.2371 23.9221 62.7775 24.0857 63.2814C24.2493 63.7852 24.5571 64.2304 24.9714 64.5623C25.8237 65.2389 26.8016 65.7417 27.8492 66.0418C28.8967 66.3419 29.9933 66.4335 31.0764 66.3114C31.7388 66.2552 32.3917 66.1184 33.0205 65.9039C33.9864 65.6012 34.8443 65.0279 35.4915 64.2524C36.1387 63.4769 36.5478 62.5322 36.6699 61.5312V61.4718C36.6699 61.2935 36.5931 60.4104 36.4567 59.0435C38.5349 59.3791 40.4978 60.2203 42.1712 61.4926C43.8445 62.7649 45.1766 64.4289 46.0491 66.3369L46.0662 66.4048ZM31.6904 27.1783C31.7184 27.5039 31.6818 27.8318 31.5826 28.1433C31.4834 28.4548 31.3235 28.7438 31.112 28.9937C30.9006 29.2437 30.6418 29.4497 30.3504 29.6C30.059 29.7504 29.7408 29.842 29.4138 29.8698C29.1278 29.8974 28.8391 29.8744 28.5611 29.8019C28.6123 29.7595 28.6464 29.7085 28.6976 29.6576L28.7658 29.5812C28.8425 29.4878 28.9192 29.3859 28.9875 29.284C29.0471 29.1906 29.0983 29.0887 29.1495 28.9953L29.2006 28.8849C29.2006 28.8085 29.2603 28.7321 29.2859 28.6472C29.3115 28.5623 29.2859 28.5623 29.3285 28.5198C29.3534 28.4419 29.3733 28.3625 29.3882 28.2821V28.1548V27.9C29.3921 27.8605 29.3921 27.8207 29.3882 27.7812C29.3967 27.654 29.3967 27.5263 29.3882 27.3991C29.3882 27.2717 29.3882 27.1529 29.3285 27.0255C29.2688 26.8981 29.3285 26.9491 29.3285 26.9066C29.3285 26.8642 29.2859 26.7453 29.2603 26.6689L29.2091 26.5331C29.1815 26.4608 29.1502 26.3899 29.1153 26.3208C29.096 26.2766 29.0732 26.234 29.0471 26.1934C29.0471 26.1255 28.9704 26.0576 28.9278 25.9896L28.851 25.8793C28.7987 25.8 28.7388 25.7261 28.672 25.6585L28.6208 25.5906C28.5398 25.5043 28.4544 25.4221 28.365 25.3444L28.2627 25.2679L28.1177 25.1491C28.372 25.0383 28.6427 24.9695 28.9192 24.9453C29.5719 24.8733 30.2268 25.0602 30.7422 25.4654C31.2576 25.8705 31.5921 26.4615 31.6733 27.1104L31.6904 27.1783ZM47.4986 16.9896C47.4484 16.9942 47.4001 17.0115 47.3584 17.0397C47.3166 17.0679 47.2827 17.1062 47.2599 17.151C47.2352 17.1951 47.2223 17.2448 47.2223 17.2953C47.2223 17.3458 47.2352 17.3955 47.2599 17.4396C48.1128 18.8555 48.5992 20.4601 48.6753 22.1094C47.5072 20.8359 44.7275 18.1189 42.3912 18.3227C42.3417 18.3262 42.2942 18.343 42.2536 18.3715C42.213 18.3999 42.181 18.4388 42.161 18.484C42.1363 18.5281 42.1234 18.5778 42.1234 18.6283C42.1234 18.6788 42.1363 18.7285 42.161 18.7727C42.9981 20.1146 43.3021 21.7193 43.0136 23.2727C42.161 22.118 39.8418 19.3755 37.9404 19.5453C37.885 19.5477 37.8316 19.5669 37.7874 19.6003C37.7432 19.6337 37.7103 19.6796 37.6931 19.7321C37.6721 19.7826 37.6673 19.8383 37.6796 19.8915C37.6918 19.9447 37.7203 19.9929 37.7613 20.0293C38.2237 20.5002 38.5622 21.0775 38.7466 21.7099C38.9311 22.3424 38.9558 23.0105 38.8186 23.6547C38.289 22.8494 37.5612 22.1925 36.7045 21.7466C35.8478 21.3008 34.8906 21.0808 33.9243 21.1076C33.8705 21.111 33.8185 21.1285 33.7736 21.1583C33.7286 21.1881 33.6924 21.2292 33.6685 21.2774C33.6476 21.326 33.6405 21.3795 33.648 21.4319C33.6555 21.4843 33.6774 21.5337 33.7112 21.5746C34.2952 22.3573 34.6494 23.2861 34.7344 24.2576C33.1467 23.8635 31.5038 23.7372 29.8742 23.884C29.0846 23.9565 28.3011 24.0842 27.5294 24.2661C30.94 21.167 43.602 10.316 50.9689 14.7057C51.0116 14.7057 55.0105 17.516 55.8035 21.5576C54.3199 20.1142 50.2527 16.7094 47.4986 16.9472V16.9896Z" fill="#999999"/>
</svg>
