<svg width="40" height="15" viewBox="0 0 40 15" fill="none" xmlns="http://www.w3.org/2000/svg">
<path d="M9.1345 9.784C9.1345 10.3387 8.9905 10.8613 8.7025 11.352C8.42517 11.832 8.00917 12.232 7.4545 12.552C6.9105 12.8613 6.26517 13.0427 5.5185 13.096V14.392H4.4945V13.08C3.42783 12.984 2.56917 12.664 1.9185 12.12C1.26783 11.5653 0.931833 10.8187 0.9105 9.88H3.3105C3.3745 10.648 3.76917 11.112 4.4945 11.272V8.216C3.7265 8.024 3.10783 7.832 2.6385 7.64C2.16917 7.448 1.76383 7.13867 1.4225 6.712C1.08117 6.28533 0.9105 5.704 0.9105 4.968C0.9105 4.04 1.24117 3.28267 1.9025 2.696C2.5745 2.10933 3.4385 1.77333 4.4945 1.688V0.391999H5.5185V1.688C6.5425 1.77333 7.3585 2.08267 7.9665 2.616C8.58517 3.14933 8.93183 3.88533 9.0065 4.824H6.5905C6.5585 4.51467 6.4465 4.248 6.2545 4.024C6.07317 3.78933 5.82783 3.624 5.5185 3.528V6.552C6.3185 6.75467 6.94783 6.952 7.4065 7.144C7.87583 7.32533 8.28117 7.62933 8.6225 8.056C8.96383 8.472 9.1345 9.048 9.1345 9.784ZM3.2465 4.856C3.2465 5.208 3.35317 5.496 3.5665 5.72C3.77983 5.93333 4.08917 6.10933 4.4945 6.248V3.48C4.1105 3.53333 3.8065 3.67733 3.5825 3.912C3.3585 4.14667 3.2465 4.46133 3.2465 4.856ZM5.5185 11.304C5.92383 11.2293 6.2385 11.064 6.4625 10.808C6.69717 10.552 6.8145 10.2427 6.8145 9.88C6.8145 9.528 6.7025 9.24533 6.4785 9.032C6.2545 8.81867 5.9345 8.64267 5.5185 8.504V11.304ZM18.8033 3.032L14.5473 13H12.2753L16.5633 3.288H11.0913V1.368H18.8033V3.032ZM27.9849 3.272H22.8009V6.008C23.0249 5.73067 23.3449 5.50667 23.7609 5.336C24.1769 5.15467 24.6195 5.064 25.0889 5.064C25.9422 5.064 26.6409 5.25067 27.1849 5.624C27.7289 5.99733 28.1235 6.47733 28.3689 7.064C28.6142 7.64 28.7369 8.25867 28.7369 8.92C28.7369 10.1467 28.3849 11.1333 27.6809 11.88C26.9875 12.6267 25.9955 13 24.7049 13C23.4889 13 22.5182 12.696 21.7929 12.088C21.0675 11.48 20.6569 10.6853 20.5609 9.704H22.7369C22.8329 10.1307 23.0462 10.472 23.3769 10.728C23.7182 10.984 24.1502 11.112 24.6729 11.112C25.3022 11.112 25.7769 10.9147 26.0969 10.52C26.4169 10.1253 26.5769 9.60267 26.5769 8.952C26.5769 8.29067 26.4115 7.78933 26.0809 7.448C25.7609 7.096 25.2862 6.92 24.6569 6.92C24.2089 6.92 23.8355 7.032 23.5369 7.256C23.2382 7.48 23.0249 7.77867 22.8969 8.152H20.7529V1.304H27.9849V3.272ZM30.4418 7.016C30.4418 5.17067 30.7724 3.72533 31.4338 2.68C32.1058 1.63467 33.2151 1.112 34.7618 1.112C36.3084 1.112 37.4124 1.63467 38.0738 2.68C38.7458 3.72533 39.0818 5.17067 39.0818 7.016C39.0818 8.872 38.7458 10.328 38.0738 11.384C37.4124 12.44 36.3084 12.968 34.7618 12.968C33.2151 12.968 32.1058 12.44 31.4338 11.384C30.7724 10.328 30.4418 8.872 30.4418 7.016ZM36.8738 7.016C36.8738 6.22667 36.8204 5.56533 36.7138 5.032C36.6178 4.488 36.4151 4.04533 36.1058 3.704C35.8071 3.36267 35.3591 3.192 34.7618 3.192C34.1644 3.192 33.7111 3.36267 33.4018 3.704C33.1031 4.04533 32.9004 4.488 32.7938 5.032C32.6978 5.56533 32.6498 6.22667 32.6498 7.016C32.6498 7.82667 32.6978 8.50933 32.7938 9.064C32.8898 9.608 33.0924 10.0507 33.4018 10.392C33.7111 10.7227 34.1644 10.888 34.7618 10.888C35.3591 10.888 35.8124 10.7227 36.1218 10.392C36.4311 10.0507 36.6338 9.608 36.7298 9.064C36.8258 8.50933 36.8738 7.82667 36.8738 7.016Z" fill="#FA7436"/>
</svg>
