<svg width="40" height="15" viewBox="0 0 40 15" fill="none" xmlns="http://www.w3.org/2000/svg">
<path d="M8.16494 9.832C8.16494 10.3653 8.0316 10.8667 7.76494 11.336C7.50894 11.8053 7.12494 12.2 6.61294 12.52C6.1116 12.84 5.51427 13.032 4.82094 13.096V14.392H3.78094V13.096C2.77827 13 1.9676 12.6853 1.34894 12.152C0.730271 11.6187 0.420938 10.9147 0.420938 10.04H2.37294C2.40494 10.456 2.53827 10.8027 2.77294 11.08C3.0076 11.3467 3.3436 11.5173 3.78094 11.592V8.072C3.06627 7.89067 2.48494 7.70933 2.03694 7.528C1.58894 7.336 1.20494 7.03733 0.884938 6.632C0.575604 6.22667 0.420938 5.672 0.420938 4.968C0.420938 4.08267 0.730271 3.352 1.34894 2.776C1.9676 2.18933 2.77827 1.848 3.78094 1.752V0.455999H4.82094V1.752C5.7596 1.83733 6.5116 2.136 7.07694 2.648C7.65294 3.14933 7.97827 3.84267 8.05294 4.728H6.10094C6.06894 4.39733 5.94094 4.104 5.71694 3.848C5.49294 3.58133 5.19427 3.4 4.82094 3.304V6.76C5.5356 6.93067 6.11694 7.112 6.56494 7.304C7.01294 7.48533 7.3916 7.77867 7.70094 8.184C8.01027 8.57867 8.16494 9.128 8.16494 9.832ZM2.27694 4.872C2.27694 5.30933 2.40494 5.65067 2.66094 5.896C2.9276 6.14133 3.30094 6.33867 3.78094 6.488V3.256C3.32227 3.30933 2.95427 3.47467 2.67694 3.752C2.41027 4.02933 2.27694 4.40267 2.27694 4.872ZM4.82094 11.592C5.29027 11.5173 5.65827 11.3307 5.92494 11.032C6.1916 10.7227 6.32494 10.3547 6.32494 9.928C6.32494 9.50133 6.1916 9.17067 5.92494 8.936C5.66894 8.69067 5.30094 8.49333 4.82094 8.344V11.592ZM12.7952 6.904C11.6859 6.34933 11.1312 5.47467 11.1312 4.28C11.1312 3.704 11.2752 3.176 11.5632 2.696C11.8512 2.216 12.2832 1.83733 12.8592 1.56C13.4352 1.272 14.1392 1.128 14.9712 1.128C15.7925 1.128 16.4912 1.272 17.0672 1.56C17.6539 1.83733 18.0912 2.216 18.3792 2.696C18.6672 3.176 18.8112 3.704 18.8112 4.28C18.8112 4.87733 18.6565 5.40533 18.3472 5.864C18.0485 6.312 17.6485 6.65867 17.1472 6.904C17.7552 7.128 18.2352 7.496 18.5872 8.008C18.9392 8.50933 19.1152 9.10133 19.1152 9.784C19.1152 10.4773 18.9392 11.0907 18.5872 11.624C18.2352 12.1573 17.7445 12.568 17.1152 12.856C16.4859 13.144 15.7712 13.288 14.9712 13.288C14.1712 13.288 13.4565 13.144 12.8272 12.856C12.2085 12.568 11.7232 12.1573 11.3712 11.624C11.0192 11.0907 10.8432 10.4773 10.8432 9.784C10.8432 9.09067 11.0192 8.49333 11.3712 7.992C11.7232 7.49067 12.1979 7.128 12.7952 6.904ZM17.0672 4.504C17.0672 3.90667 16.8805 3.448 16.5072 3.128C16.1339 2.808 15.6219 2.648 14.9712 2.648C14.3312 2.648 13.8245 2.808 13.4512 3.128C13.0779 3.448 12.8912 3.912 12.8912 4.52C12.8912 5.05333 13.0832 5.49067 13.4672 5.832C13.8619 6.16267 14.3632 6.328 14.9712 6.328C15.5792 6.328 16.0805 6.15733 16.4752 5.816C16.8699 5.47467 17.0672 5.03733 17.0672 4.504ZM14.9712 7.704C14.2672 7.704 13.6912 7.88 13.2432 8.232C12.8059 8.57333 12.5872 9.06933 12.5872 9.72C12.5872 10.328 12.8005 10.824 13.2272 11.208C13.6539 11.5813 14.2352 11.768 14.9712 11.768C15.6965 11.768 16.2672 11.576 16.6832 11.192C17.1099 10.808 17.3232 10.3173 17.3232 9.72C17.3232 9.08 17.1045 8.584 16.6672 8.232C16.2405 7.88 15.6752 7.704 14.9712 7.704ZM28.5503 2.904H23.1903V6.088C23.4143 5.78933 23.745 5.53867 24.1823 5.336C24.6303 5.13333 25.105 5.032 25.6063 5.032C26.5023 5.032 27.2276 5.224 27.7823 5.608C28.3476 5.992 28.7476 6.47733 28.9823 7.064C29.2276 7.65067 29.3503 8.26933 29.3503 8.92C29.3503 9.70933 29.1956 10.4133 28.8863 11.032C28.5876 11.64 28.1343 12.12 27.5263 12.472C26.929 12.824 26.193 13 25.3183 13C24.1556 13 23.2223 12.712 22.5183 12.136C21.8143 11.56 21.393 10.7973 21.2543 9.848H23.0303C23.1476 10.3493 23.409 10.7493 23.8143 11.048C24.2196 11.336 24.7263 11.48 25.3343 11.48C26.0916 11.48 26.657 11.2507 27.0303 10.792C27.4143 10.3333 27.6063 9.72533 27.6063 8.968C27.6063 8.2 27.4143 7.61333 27.0303 7.208C26.6463 6.792 26.081 6.584 25.3343 6.584C24.8116 6.584 24.369 6.71733 24.0063 6.984C23.6543 7.24 23.3983 7.592 23.2383 8.04H21.5103V1.304H28.5503V2.904ZM31.2491 7.016C31.2491 5.17067 31.5584 3.73067 32.1771 2.696C32.8064 1.65067 33.8837 1.128 35.4091 1.128C36.9344 1.128 38.0064 1.65067 38.6251 2.696C39.2544 3.73067 39.5691 5.17067 39.5691 7.016C39.5691 8.88267 39.2544 10.344 38.6251 11.4C38.0064 12.4453 36.9344 12.968 35.4091 12.968C33.8837 12.968 32.8064 12.4453 32.1771 11.4C31.5584 10.344 31.2491 8.88267 31.2491 7.016ZM37.7771 7.016C37.7771 6.152 37.7184 5.42133 37.6011 4.824C37.4944 4.22667 37.2704 3.74133 36.9291 3.368C36.5877 2.984 36.0811 2.792 35.4091 2.792C34.7371 2.792 34.2304 2.984 33.8891 3.368C33.5477 3.74133 33.3184 4.22667 33.2011 4.824C33.0944 5.42133 33.0411 6.152 33.0411 7.016C33.0411 7.912 33.0944 8.664 33.2011 9.272C33.3077 9.88 33.5317 10.3707 33.8731 10.744C34.2251 11.1173 34.7371 11.304 35.4091 11.304C36.0811 11.304 36.5877 11.1173 36.9291 10.744C37.2811 10.3707 37.5104 9.88 37.6171 9.272C37.7237 8.664 37.7771 7.912 37.7771 7.016Z" fill="#666666"/>
</svg>
