<svg width="79" height="23" viewBox="0 0 79 23" fill="none" xmlns="http://www.w3.org/2000/svg">
<path d="M12.608 14.176C12.608 15.008 12.392 15.792 11.96 16.528C11.544 17.248 10.92 17.848 10.088 18.328C9.272 18.792 8.304 19.064 7.184 19.144V21.088H5.648V19.12C4.048 18.976 2.76 18.496 1.784 17.68C0.808 16.848 0.304 15.728 0.272 14.32H3.872C3.968 15.472 4.56 16.168 5.648 16.408V11.824C4.496 11.536 3.568 11.248 2.864 10.96C2.16 10.672 1.552 10.208 1.04 9.568C0.528 8.928 0.272 8.056 0.272 6.952C0.272 5.56 0.768 4.424 1.76 3.544C2.768 2.664 4.064 2.16 5.648 2.032V0.0879989H7.184V2.032C8.72 2.16 9.944 2.624 10.856 3.424C11.784 4.224 12.304 5.328 12.416 6.736H8.792C8.744 6.272 8.576 5.872 8.288 5.536C8.016 5.184 7.648 4.936 7.184 4.792V9.328C8.384 9.632 9.328 9.928 10.016 10.216C10.72 10.488 11.328 10.944 11.84 11.584C12.352 12.208 12.608 13.072 12.608 14.176ZM3.776 6.784C3.776 7.312 3.936 7.744 4.256 8.08C4.576 8.4 5.04 8.664 5.648 8.872V4.72C5.072 4.8 4.616 5.016 4.28 5.368C3.944 5.72 3.776 6.192 3.776 6.784ZM7.184 16.456C7.792 16.344 8.264 16.096 8.6 15.712C8.952 15.328 9.128 14.864 9.128 14.32C9.128 13.792 8.96 13.368 8.624 13.048C8.288 12.728 7.808 12.464 7.184 12.256V16.456ZM17.0311 15.208C18.5671 13.928 19.7911 12.864 20.7031 12.016C21.6151 11.152 22.3751 10.256 22.9831 9.328C23.5911 8.4 23.8951 7.488 23.8951 6.592C23.8951 5.776 23.7031 5.136 23.3191 4.672C22.9351 4.208 22.3431 3.976 21.5431 3.976C20.7431 3.976 20.1271 4.248 19.6951 4.792C19.2631 5.32 19.0391 6.048 19.0231 6.976H15.7591C15.8231 5.056 16.3911 3.6 17.4631 2.608C18.5511 1.616 19.9271 1.12 21.5911 1.12C23.4151 1.12 24.8151 1.608 25.7911 2.584C26.7671 3.544 27.2551 4.816 27.2551 6.4C27.2551 7.648 26.9191 8.84 26.2471 9.976C25.5751 11.112 24.8071 12.104 23.9431 12.952C23.0791 13.784 21.9511 14.792 20.5591 15.976H27.6391V18.76H15.7831V16.264L17.0311 15.208ZM33.8124 15.472L31.0044 22.216H28.8444L30.4044 15.472H33.8124ZM35.7061 15.592V12.952L43.5541 1.72H47.4661V12.664H49.5781V15.592H47.4661V19H44.1061V15.592H35.7061ZM44.3221 5.32L39.4021 12.664H44.3221V5.32ZM52.7733 15.208C54.3093 13.928 55.5333 12.864 56.4453 12.016C57.3573 11.152 58.1173 10.256 58.7253 9.328C59.3333 8.4 59.6373 7.488 59.6373 6.592C59.6373 5.776 59.4453 5.136 59.0613 4.672C58.6773 4.208 58.0853 3.976 57.2853 3.976C56.4853 3.976 55.8693 4.248 55.4373 4.792C55.0053 5.32 54.7813 6.048 54.7653 6.976H51.5013C51.5653 5.056 52.1333 3.6 53.2053 2.608C54.2933 1.616 55.6693 1.12 57.3333 1.12C59.1573 1.12 60.5573 1.608 61.5333 2.584C62.5093 3.544 62.9973 4.816 62.9973 6.4C62.9973 7.648 62.6613 8.84 61.9893 9.976C61.3173 11.112 60.5493 12.104 59.6853 12.952C58.8213 13.784 57.6933 14.792 56.3013 15.976H63.3813V18.76H51.5253V16.264L52.7733 15.208ZM73.7546 19L69.2426 13.336V19H65.8826V1.24H69.2426V11.344L73.7066 5.704H78.0746L72.2186 12.376L78.1226 19H73.7546Z" fill="#FA7436"/>
</svg>
