<svg width="40" height="15" viewBox="0 0 40 15" fill="none" xmlns="http://www.w3.org/2000/svg">
<path d="M9.17356 9.784C9.17356 10.3387 9.02956 10.8613 8.74156 11.352C8.46423 11.832 8.04823 12.232 7.49356 12.552C6.94956 12.8613 6.30423 13.0427 5.55756 13.096V14.392H4.53356V13.08C3.4669 12.984 2.60823 12.664 1.95756 12.12C1.3069 11.5653 0.970896 10.8187 0.949563 9.88H3.34956C3.41356 10.648 3.80823 11.112 4.53356 11.272V8.216C3.76556 8.024 3.1469 7.832 2.67756 7.64C2.20823 7.448 1.8029 7.13867 1.46156 6.712C1.12023 6.28533 0.949563 5.704 0.949563 4.968C0.949563 4.04 1.28023 3.28267 1.94156 2.696C2.61356 2.10933 3.47756 1.77333 4.53356 1.688V0.391999H5.55756V1.688C6.58156 1.77333 7.39756 2.08267 8.00556 2.616C8.62423 3.14933 8.9709 3.88533 9.04556 4.824H6.62956C6.59756 4.51467 6.48556 4.248 6.29356 4.024C6.11223 3.78933 5.8669 3.624 5.55756 3.528V6.552C6.35756 6.75467 6.9869 6.952 7.44556 7.144C7.9149 7.32533 8.32023 7.62933 8.66156 8.056C9.0029 8.472 9.17356 9.048 9.17356 9.784ZM3.28556 4.856C3.28556 5.208 3.39223 5.496 3.60556 5.72C3.8189 5.93333 4.12823 6.10933 4.53356 6.248V3.48C4.14956 3.53333 3.84556 3.67733 3.62156 3.912C3.39756 4.14667 3.28556 4.46133 3.28556 4.856ZM5.55756 11.304C5.9629 11.2293 6.27756 11.064 6.50156 10.808C6.73623 10.552 6.85356 10.2427 6.85356 9.88C6.85356 9.528 6.74156 9.24533 6.51756 9.032C6.29356 8.81867 5.97356 8.64267 5.55756 8.504V11.304ZM19.2583 3.272H14.0743V6.008C14.2983 5.73067 14.6183 5.50667 15.0343 5.336C15.4503 5.15467 15.893 5.064 16.3623 5.064C17.2156 5.064 17.9143 5.25067 18.4583 5.624C19.0023 5.99733 19.397 6.47733 19.6423 7.064C19.8876 7.64 20.0103 8.25867 20.0103 8.92C20.0103 10.1467 19.6583 11.1333 18.9543 11.88C18.261 12.6267 17.269 13 15.9783 13C14.7623 13 13.7916 12.696 13.0663 12.088C12.341 11.48 11.9303 10.6853 11.8343 9.704H14.0103C14.1063 10.1307 14.3196 10.472 14.6503 10.728C14.9916 10.984 15.4236 11.112 15.9463 11.112C16.5756 11.112 17.0503 10.9147 17.3703 10.52C17.6903 10.1253 17.8503 9.60267 17.8503 8.952C17.8503 8.29067 17.685 7.78933 17.3543 7.448C17.0343 7.096 16.5596 6.92 15.9303 6.92C15.4823 6.92 15.109 7.032 14.8103 7.256C14.5116 7.48 14.2983 7.77867 14.1703 8.152H12.0263V1.304H19.2583V3.272ZM24.3072 9.72C24.3925 10.1893 24.5845 10.552 24.8832 10.808C25.1925 11.0533 25.6032 11.176 26.1152 11.176C26.7765 11.176 27.2565 10.904 27.5552 10.36C27.8539 9.80533 28.0032 8.87733 28.0032 7.576C27.7579 7.91733 27.4112 8.184 26.9632 8.376C26.5259 8.568 26.0512 8.664 25.5392 8.664C24.8565 8.664 24.2379 8.52533 23.6832 8.248C23.1392 7.96 22.7072 7.53867 22.3872 6.984C22.0672 6.41867 21.9072 5.736 21.9072 4.936C21.9072 3.752 22.2592 2.81333 22.9632 2.12C23.6672 1.416 24.6272 1.064 25.8432 1.064C27.3579 1.064 28.4245 1.54933 29.0432 2.52C29.6725 3.49067 29.9872 4.952 29.9872 6.904C29.9872 8.29067 29.8645 9.42667 29.6192 10.312C29.3845 11.1973 28.9739 11.8693 28.3872 12.328C27.8112 12.7867 27.0219 13.016 26.0192 13.016C25.2299 13.016 24.5579 12.8667 24.0032 12.568C23.4485 12.2587 23.0219 11.8587 22.7232 11.368C22.4352 10.8667 22.2699 10.3173 22.2272 9.72H24.3072ZM26.0032 6.84C26.5579 6.84 26.9952 6.66933 27.3152 6.328C27.6352 5.98667 27.7952 5.528 27.7952 4.952C27.7952 4.32267 27.6245 3.83733 27.2832 3.496C26.9525 3.144 26.4992 2.968 25.9232 2.968C25.3472 2.968 24.8885 3.14933 24.5472 3.512C24.2165 3.864 24.0512 4.33333 24.0512 4.92C24.0512 5.48533 24.2112 5.94933 24.5312 6.312C24.8619 6.664 25.3525 6.84 26.0032 6.84ZM34.3228 9.72C34.4081 10.1893 34.6001 10.552 34.8988 10.808C35.2081 11.0533 35.6188 11.176 36.1308 11.176C36.7921 11.176 37.2721 10.904 37.5708 10.36C37.8695 9.80533 38.0188 8.87733 38.0188 7.576C37.7735 7.91733 37.4268 8.184 36.9788 8.376C36.5415 8.568 36.0668 8.664 35.5548 8.664C34.8721 8.664 34.2535 8.52533 33.6988 8.248C33.1548 7.96 32.7228 7.53867 32.4028 6.984C32.0828 6.41867 31.9228 5.736 31.9228 4.936C31.9228 3.752 32.2748 2.81333 32.9788 2.12C33.6828 1.416 34.6428 1.064 35.8588 1.064C37.3735 1.064 38.4401 1.54933 39.0588 2.52C39.6881 3.49067 40.0028 4.952 40.0028 6.904C40.0028 8.29067 39.8801 9.42667 39.6348 10.312C39.4001 11.1973 38.9895 11.8693 38.4028 12.328C37.8268 12.7867 37.0375 13.016 36.0348 13.016C35.2455 13.016 34.5735 12.8667 34.0188 12.568C33.4641 12.2587 33.0375 11.8587 32.7388 11.368C32.4508 10.8667 32.2855 10.3173 32.2428 9.72H34.3228ZM36.0188 6.84C36.5735 6.84 37.0108 6.66933 37.3308 6.328C37.6508 5.98667 37.8108 5.528 37.8108 4.952C37.8108 4.32267 37.6401 3.83733 37.2988 3.496C36.9681 3.144 36.5148 2.968 35.9388 2.968C35.3628 2.968 34.9041 3.14933 34.5628 3.512C34.2321 3.864 34.0668 4.33333 34.0668 4.92C34.0668 5.48533 34.2268 5.94933 34.5468 6.312C34.8775 6.664 35.3681 6.84 36.0188 6.84Z" fill="#FA7436"/>
</svg>
