<svg width="40" height="15" viewBox="0 0 40 15" fill="none" xmlns="http://www.w3.org/2000/svg">
<path d="M8.71181 9.832C8.71181 10.3653 8.57848 10.8667 8.31181 11.336C8.05581 11.8053 7.67181 12.2 7.15981 12.52C6.65848 12.84 6.06115 13.032 5.36781 13.096V14.392H4.32781V13.096C3.32515 13 2.51448 12.6853 1.89581 12.152C1.27715 11.6187 0.967813 10.9147 0.967813 10.04H2.91981C2.95181 10.456 3.08515 10.8027 3.31981 11.08C3.55448 11.3467 3.89048 11.5173 4.32781 11.592V8.072C3.61315 7.89067 3.03181 7.70933 2.58381 7.528C2.13581 7.336 1.75181 7.03733 1.43181 6.632C1.12248 6.22667 0.967813 5.672 0.967813 4.968C0.967813 4.08267 1.27715 3.352 1.89581 2.776C2.51448 2.18933 3.32515 1.848 4.32781 1.752V0.455999H5.36781V1.752C6.30648 1.83733 7.05848 2.136 7.62381 2.648C8.19981 3.14933 8.52515 3.84267 8.59981 4.728H6.64781C6.61581 4.39733 6.48781 4.104 6.26381 3.848C6.03981 3.58133 5.74115 3.4 5.36781 3.304V6.76C6.08248 6.93067 6.66381 7.112 7.11181 7.304C7.55981 7.48533 7.93848 7.77867 8.24781 8.184C8.55715 8.57867 8.71181 9.128 8.71181 9.832ZM2.82381 4.872C2.82381 5.30933 2.95181 5.65067 3.20781 5.896C3.47448 6.14133 3.84781 6.33867 4.32781 6.488V3.256C3.86915 3.30933 3.50115 3.47467 3.22381 3.752C2.95715 4.02933 2.82381 4.40267 2.82381 4.872ZM5.36781 11.592C5.83715 11.5173 6.20515 11.3307 6.47181 11.032C6.73848 10.7227 6.87181 10.3547 6.87181 9.928C6.87181 9.50133 6.73848 9.17067 6.47181 8.936C6.21581 8.69067 5.84781 8.49333 5.36781 8.344V11.592ZM17.6461 4.04C17.5287 3.54933 17.3154 3.18133 17.0061 2.936C16.6967 2.69067 16.2647 2.568 15.7101 2.568C14.8674 2.568 14.2381 2.89333 13.8221 3.544C13.4061 4.184 13.1874 5.25067 13.1661 6.744C13.4434 6.27467 13.8487 5.912 14.3821 5.656C14.9154 5.4 15.4914 5.272 16.1101 5.272C16.8141 5.272 17.4327 5.42667 17.9661 5.736C18.5101 6.03467 18.9314 6.472 19.2301 7.048C19.5394 7.624 19.6941 8.312 19.6941 9.112C19.6941 9.85867 19.5447 10.5253 19.2461 11.112C18.9581 11.6987 18.5261 12.1627 17.9501 12.504C17.3741 12.8347 16.6807 13 15.8701 13C14.7714 13 13.9074 12.76 13.2781 12.28C12.6594 11.7893 12.2221 11.1013 11.9661 10.216C11.7207 9.33067 11.5981 8.22667 11.5981 6.904C11.5981 3 12.9741 1.048 15.7261 1.048C16.7927 1.048 17.6301 1.336 18.2381 1.912C18.8567 2.488 19.2194 3.19733 19.3261 4.04H17.6461ZM15.7101 6.808C15.0594 6.808 14.5047 7.00533 14.0461 7.4C13.5981 7.784 13.3741 8.344 13.3741 9.08C13.3741 9.816 13.5821 10.4027 13.9981 10.84C14.4247 11.2667 15.0167 11.48 15.7741 11.48C16.4461 11.48 16.9741 11.272 17.3581 10.856C17.7527 10.44 17.9501 9.88533 17.9501 9.192C17.9501 8.46667 17.7581 7.89067 17.3741 7.464C17.0007 7.02667 16.4461 6.808 15.7101 6.808ZM23.9117 9.832C24.0184 10.3653 24.2477 10.7707 24.5997 11.048C24.9517 11.3253 25.4264 11.464 26.0237 11.464C26.781 11.464 27.3357 11.1653 27.6877 10.568C28.0397 9.97067 28.2157 8.952 28.2157 7.512C27.9597 7.87467 27.597 8.15733 27.1277 8.36C26.669 8.552 26.1677 8.648 25.6237 8.648C24.9304 8.648 24.301 8.50933 23.7357 8.232C23.1704 7.944 22.7224 7.52267 22.3917 6.968C22.0717 6.40267 21.9117 5.72 21.9117 4.92C21.9117 3.74667 22.253 2.81333 22.9357 2.12C23.629 1.416 24.5784 1.064 25.7837 1.064C27.2344 1.064 28.2637 1.54933 28.8717 2.52C29.4904 3.48 29.7997 4.95733 29.7997 6.952C29.7997 8.328 29.6824 9.45333 29.4477 10.328C29.2237 11.2027 28.829 11.864 28.2637 12.312C27.6984 12.76 26.9144 12.984 25.9117 12.984C24.7704 12.984 23.8904 12.6853 23.2717 12.088C22.653 11.4907 22.3064 10.7387 22.2317 9.832H23.9117ZM25.9437 7.112C26.5837 7.112 27.085 6.91467 27.4477 6.52C27.821 6.11467 28.0077 5.58133 28.0077 4.92C28.0077 4.184 27.8104 3.61333 27.4157 3.208C27.0317 2.792 26.5037 2.584 25.8317 2.584C25.1597 2.584 24.6264 2.79733 24.2317 3.224C23.8477 3.64 23.6557 4.18933 23.6557 4.872C23.6557 5.52267 23.8424 6.06133 24.2157 6.488C24.5997 6.904 25.1757 7.112 25.9437 7.112ZM34.0679 9.832C34.1746 10.3653 34.4039 10.7707 34.7559 11.048C35.1079 11.3253 35.5826 11.464 36.1799 11.464C36.9373 11.464 37.4919 11.1653 37.8439 10.568C38.1959 9.97067 38.3719 8.952 38.3719 7.512C38.1159 7.87467 37.7533 8.15733 37.2839 8.36C36.8253 8.552 36.3239 8.648 35.7799 8.648C35.0866 8.648 34.4573 8.50933 33.8919 8.232C33.3266 7.944 32.8786 7.52267 32.5479 6.968C32.2279 6.40267 32.0679 5.72 32.0679 4.92C32.0679 3.74667 32.4093 2.81333 33.0919 2.12C33.7853 1.416 34.7346 1.064 35.9399 1.064C37.3906 1.064 38.4199 1.54933 39.0279 2.52C39.6466 3.48 39.9559 4.95733 39.9559 6.952C39.9559 8.328 39.8386 9.45333 39.6039 10.328C39.3799 11.2027 38.9853 11.864 38.4199 12.312C37.8546 12.76 37.0706 12.984 36.0679 12.984C34.9266 12.984 34.0466 12.6853 33.4279 12.088C32.8093 11.4907 32.4626 10.7387 32.3879 9.832H34.0679ZM36.0999 7.112C36.7399 7.112 37.2413 6.91467 37.6039 6.52C37.9773 6.11467 38.1639 5.58133 38.1639 4.92C38.1639 4.184 37.9666 3.61333 37.5719 3.208C37.1879 2.792 36.6599 2.584 35.9879 2.584C35.3159 2.584 34.7826 2.79733 34.3879 3.224C34.0039 3.64 33.8119 4.18933 33.8119 4.872C33.8119 5.52267 33.9986 6.06133 34.3719 6.488C34.7559 6.904 35.3319 7.112 36.0999 7.112Z" fill="#666666"/>
</svg>
