<svg width="80" height="23" viewBox="0 0 80 23" fill="none" xmlns="http://www.w3.org/2000/svg">
<path d="M12.608 14.176C12.608 15.008 12.392 15.792 11.96 16.528C11.544 17.248 10.92 17.848 10.088 18.328C9.272 18.792 8.304 19.064 7.184 19.144V21.088H5.648V19.12C4.048 18.976 2.76 18.496 1.784 17.68C0.808 16.848 0.304 15.728 0.272 14.32H3.872C3.968 15.472 4.56 16.168 5.648 16.408V11.824C4.496 11.536 3.568 11.248 2.864 10.96C2.16 10.672 1.552 10.208 1.04 9.568C0.528 8.928 0.272 8.056 0.272 6.952C0.272 5.56 0.768 4.424 1.76 3.544C2.768 2.664 4.064 2.16 5.648 2.032V0.0879989H7.184V2.032C8.72 2.16 9.944 2.624 10.856 3.424C11.784 4.224 12.304 5.328 12.416 6.736H8.792C8.744 6.272 8.576 5.872 8.288 5.536C8.016 5.184 7.648 4.936 7.184 4.792V9.328C8.384 9.632 9.328 9.928 10.016 10.216C10.72 10.488 11.328 10.944 11.84 11.584C12.352 12.208 12.608 13.072 12.608 14.176ZM3.776 6.784C3.776 7.312 3.936 7.744 4.256 8.08C4.576 8.4 5.04 8.664 5.648 8.872V4.72C5.072 4.8 4.616 5.016 4.28 5.368C3.944 5.72 3.776 6.192 3.776 6.784ZM7.184 16.456C7.792 16.344 8.264 16.096 8.6 15.712C8.952 15.328 9.128 14.864 9.128 14.32C9.128 13.792 8.96 13.368 8.624 13.048C8.288 12.728 7.808 12.464 7.184 12.256V16.456ZM27.7351 4.408H19.9591V8.512C20.2951 8.096 20.7751 7.76 21.3991 7.504C22.0231 7.232 22.6871 7.096 23.3911 7.096C24.6711 7.096 25.7191 7.376 26.5351 7.936C27.3511 8.496 27.9431 9.216 28.3111 10.096C28.6791 10.96 28.8631 11.888 28.8631 12.88C28.8631 14.72 28.3351 16.2 27.2791 17.32C26.2391 18.44 24.7511 19 22.8151 19C20.9911 19 19.5351 18.544 18.4471 17.632C17.3591 16.72 16.7431 15.528 16.5991 14.056H19.8631C20.0071 14.696 20.3271 15.208 20.8231 15.592C21.3351 15.976 21.9831 16.168 22.7671 16.168C23.7111 16.168 24.4231 15.872 24.9031 15.28C25.3831 14.688 25.6231 13.904 25.6231 12.928C25.6231 11.936 25.3751 11.184 24.8791 10.672C24.3991 10.144 23.6871 9.88 22.7431 9.88C22.0711 9.88 21.5111 10.048 21.0631 10.384C20.6151 10.72 20.2951 11.168 20.1031 11.728H16.8871V1.456H27.7351V4.408ZM35.4764 15.472L32.6684 22.216H30.5084L32.0684 15.472H35.4764ZM37.3702 15.592V12.952L45.2182 1.72H49.1302V12.664H51.2422V15.592H49.1302V19H45.7702V15.592H37.3702ZM45.9862 5.32L41.0662 12.664H45.9862V5.32ZM54.4374 15.208C55.9734 13.928 57.1974 12.864 58.1094 12.016C59.0214 11.152 59.7814 10.256 60.3894 9.328C60.9974 8.4 61.3014 7.488 61.3014 6.592C61.3014 5.776 61.1094 5.136 60.7254 4.672C60.3414 4.208 59.7494 3.976 58.9494 3.976C58.1494 3.976 57.5334 4.248 57.1014 4.792C56.6694 5.32 56.4454 6.048 56.4294 6.976H53.1654C53.2294 5.056 53.7974 3.6 54.8694 2.608C55.9574 1.616 57.3334 1.12 58.9974 1.12C60.8214 1.12 62.2214 1.608 63.1974 2.584C64.1734 3.544 64.6614 4.816 64.6614 6.4C64.6614 7.648 64.3254 8.84 63.6534 9.976C62.9814 11.112 62.2134 12.104 61.3494 12.952C60.4854 13.784 59.3574 14.792 57.9654 15.976H65.0454V18.76H53.1894V16.264L54.4374 15.208ZM75.4186 19L70.9066 13.336V19H67.5466V1.24H70.9066V11.344L75.3706 5.704H79.7386L73.8826 12.376L79.7866 19H75.4186Z" fill="#FA7436"/>
</svg>
