<svg width="40" height="15" viewBox="0 0 40 15" fill="none" xmlns="http://www.w3.org/2000/svg">
<path d="M8.37669 9.784C8.37669 10.3387 8.23269 10.8613 7.94469 11.352C7.66735 11.832 7.25135 12.232 6.69669 12.552C6.15269 12.8613 5.50735 13.0427 4.76069 13.096V14.392H3.73669V13.08C2.67002 12.984 1.81135 12.664 1.16069 12.12C0.510021 11.5653 0.174021 10.8187 0.152688 9.88H2.55269C2.61669 10.648 3.01135 11.112 3.73669 11.272V8.216C2.96869 8.024 2.35002 7.832 1.88069 7.64C1.41135 7.448 1.00602 7.13867 0.664688 6.712C0.323354 6.28533 0.152688 5.704 0.152688 4.968C0.152688 4.04 0.483354 3.28267 1.14469 2.696C1.81669 2.10933 2.68069 1.77333 3.73669 1.688V0.391999H4.76069V1.688C5.78469 1.77333 6.60069 2.08267 7.20869 2.616C7.82735 3.14933 8.17402 3.88533 8.24869 4.824H5.83269C5.80069 4.51467 5.68869 4.248 5.49669 4.024C5.31535 3.78933 5.07002 3.624 4.76069 3.528V6.552C5.56069 6.75467 6.19002 6.952 6.64869 7.144C7.11802 7.32533 7.52335 7.62933 7.86469 8.056C8.20602 8.472 8.37669 9.048 8.37669 9.784ZM2.48869 4.856C2.48869 5.208 2.59535 5.496 2.80869 5.72C3.02202 5.93333 3.33135 6.10933 3.73669 6.248V3.48C3.35269 3.53333 3.04869 3.67733 2.82469 3.912C2.60069 4.14667 2.48869 4.46133 2.48869 4.856ZM4.76069 11.304C5.16602 11.2293 5.48069 11.064 5.70469 10.808C5.93935 10.552 6.05669 10.2427 6.05669 9.88C6.05669 9.528 5.94469 9.24533 5.72069 9.032C5.49669 8.81867 5.17669 8.64267 4.76069 8.504V11.304ZM12.5734 6.824C11.5068 6.26933 10.9734 5.41067 10.9734 4.248C10.9734 3.672 11.1174 3.14933 11.4054 2.68C11.7041 2.2 12.1468 1.82133 12.7334 1.544C13.3308 1.256 14.0561 1.112 14.9094 1.112C15.7628 1.112 16.4828 1.256 17.0694 1.544C17.6668 1.82133 18.1094 2.2 18.3974 2.68C18.6961 3.14933 18.8454 3.672 18.8454 4.248C18.8454 4.83467 18.7014 5.352 18.4134 5.8C18.1254 6.23733 17.7414 6.57867 17.2614 6.824C17.8481 7.08 18.3068 7.45333 18.6374 7.944C18.9681 8.43467 19.1334 9.016 19.1334 9.688C19.1334 10.4133 18.9468 11.048 18.5734 11.592C18.2108 12.1253 17.7094 12.536 17.0694 12.824C16.4294 13.112 15.7094 13.256 14.9094 13.256C14.1094 13.256 13.3894 13.112 12.7494 12.824C12.1201 12.536 11.6188 12.1253 11.2454 11.592C10.8828 11.048 10.7014 10.4133 10.7014 9.688C10.7014 9.016 10.8668 8.43467 11.1974 7.944C11.5281 7.44267 11.9868 7.06933 12.5734 6.824ZM16.6694 4.568C16.6694 4.04533 16.5094 3.64 16.1894 3.352C15.8801 3.064 15.4534 2.92 14.9094 2.92C14.3761 2.92 13.9494 3.064 13.6294 3.352C13.3201 3.64 13.1654 4.05067 13.1654 4.584C13.1654 5.064 13.3254 5.448 13.6454 5.736C13.9761 6.024 14.3974 6.168 14.9094 6.168C15.4214 6.168 15.8428 6.024 16.1734 5.736C16.5041 5.43733 16.6694 5.048 16.6694 4.568ZM14.9094 7.8C14.3014 7.8 13.8054 7.95467 13.4214 8.264C13.0481 8.57333 12.8614 9.016 12.8614 9.592C12.8614 10.1253 13.0428 10.5627 13.4054 10.904C13.7788 11.2347 14.2801 11.4 14.9094 11.4C15.5388 11.4 16.0348 11.2293 16.3974 10.888C16.7601 10.5467 16.9414 10.1147 16.9414 9.592C16.9414 9.02667 16.7548 8.58933 16.3814 8.28C16.0081 7.96 15.5174 7.8 14.9094 7.8ZM28.7427 3.272H23.5587V6.008C23.7827 5.73067 24.1027 5.50667 24.5187 5.336C24.9347 5.15467 25.3774 5.064 25.8467 5.064C26.7 5.064 27.3987 5.25067 27.9427 5.624C28.4867 5.99733 28.8814 6.47733 29.1267 7.064C29.372 7.64 29.4947 8.25867 29.4947 8.92C29.4947 10.1467 29.1427 11.1333 28.4387 11.88C27.7454 12.6267 26.7534 13 25.4627 13C24.2467 13 23.276 12.696 22.5507 12.088C21.8254 11.48 21.4147 10.6853 21.3187 9.704H23.4947C23.5907 10.1307 23.804 10.472 24.1347 10.728C24.476 10.984 24.908 11.112 25.4307 11.112C26.06 11.112 26.5347 10.9147 26.8547 10.52C27.1747 10.1253 27.3347 9.60267 27.3347 8.952C27.3347 8.29067 27.1694 7.78933 26.8387 7.448C26.5187 7.096 26.044 6.92 25.4147 6.92C24.9667 6.92 24.5934 7.032 24.2947 7.256C23.996 7.48 23.7827 7.77867 23.6547 8.152H21.5107V1.304H28.7427V3.272ZM31.1996 7.016C31.1996 5.17067 31.5302 3.72533 32.1916 2.68C32.8636 1.63467 33.9729 1.112 35.5196 1.112C37.0662 1.112 38.1702 1.63467 38.8316 2.68C39.5036 3.72533 39.8396 5.17067 39.8396 7.016C39.8396 8.872 39.5036 10.328 38.8316 11.384C38.1702 12.44 37.0662 12.968 35.5196 12.968C33.9729 12.968 32.8636 12.44 32.1916 11.384C31.5302 10.328 31.1996 8.872 31.1996 7.016ZM37.6316 7.016C37.6316 6.22667 37.5782 5.56533 37.4716 5.032C37.3756 4.488 37.1729 4.04533 36.8636 3.704C36.5649 3.36267 36.1169 3.192 35.5196 3.192C34.9222 3.192 34.4689 3.36267 34.1596 3.704C33.8609 4.04533 33.6582 4.488 33.5516 5.032C33.4556 5.56533 33.4076 6.22667 33.4076 7.016C33.4076 7.82667 33.4556 8.50933 33.5516 9.064C33.6476 9.608 33.8502 10.0507 34.1596 10.392C34.4689 10.7227 34.9222 10.888 35.5196 10.888C36.1169 10.888 36.5702 10.7227 36.8796 10.392C37.1889 10.0507 37.3916 9.608 37.4876 9.064C37.5836 8.50933 37.6316 7.82667 37.6316 7.016Z" fill="#FA7436"/>
</svg>
