<svg width="42" height="24" viewBox="0 0 42 24" fill="none" xmlns="http://www.w3.org/2000/svg">
<path d="M9.18838 14.832C9.18838 15.3653 9.05504 15.8667 8.78838 16.336C8.53238 16.8053 8.14838 17.2 7.63638 17.52C7.13504 17.84 6.53771 18.032 5.84438 18.096V19.392H4.80438V18.096C3.80171 18 2.99104 17.6853 2.37238 17.152C1.75371 16.6187 1.44438 15.9147 1.44438 15.04H3.39638C3.42838 15.456 3.56171 15.8027 3.79638 16.08C4.03104 16.3467 4.36704 16.5173 4.80438 16.592V13.072C4.08971 12.8907 3.50838 12.7093 3.06038 12.528C2.61238 12.336 2.22838 12.0373 1.90838 11.632C1.59904 11.2267 1.44438 10.672 1.44438 9.968C1.44438 9.08267 1.75371 8.352 2.37238 7.776C2.99104 7.18933 3.80171 6.848 4.80438 6.752V5.456H5.84438V6.752C6.78304 6.83733 7.53504 7.136 8.10038 7.648C8.67638 8.14933 9.00171 8.84267 9.07638 9.728H7.12438C7.09238 9.39733 6.96438 9.104 6.74038 8.848C6.51638 8.58133 6.21771 8.4 5.84438 8.304V11.76C6.55904 11.9307 7.14038 12.112 7.58838 12.304C8.03638 12.4853 8.41504 12.7787 8.72438 13.184C9.03371 13.5787 9.18838 14.128 9.18838 14.832ZM3.30038 9.872C3.30038 10.3093 3.42838 10.6507 3.68438 10.896C3.95104 11.1413 4.32438 11.3387 4.80438 11.488V8.256C4.34571 8.30933 3.97771 8.47467 3.70038 8.752C3.43371 9.02933 3.30038 9.40267 3.30038 9.872ZM5.84438 16.592C6.31371 16.5173 6.68171 16.3307 6.94838 16.032C7.21504 15.7227 7.34838 15.3547 7.34838 14.928C7.34838 14.5013 7.21504 14.1707 6.94838 13.936C6.69238 13.6907 6.32438 13.4933 5.84438 13.344V16.592ZM14.1226 14.832C14.2293 15.3653 14.4586 15.7707 14.8106 16.048C15.1626 16.3253 15.6373 16.464 16.2346 16.464C16.992 16.464 17.5466 16.1653 17.8986 15.568C18.2506 14.9707 18.4266 13.952 18.4266 12.512C18.1706 12.8747 17.808 13.1573 17.3386 13.36C16.88 13.552 16.3786 13.648 15.8346 13.648C15.1413 13.648 14.512 13.5093 13.9466 13.232C13.3813 12.944 12.9333 12.5227 12.6026 11.968C12.2826 11.4027 12.1226 10.72 12.1226 9.92C12.1226 8.74667 12.464 7.81333 13.1466 7.12C13.84 6.416 14.7893 6.064 15.9946 6.064C17.4453 6.064 18.4746 6.54933 19.0826 7.52C19.7013 8.48 20.0106 9.95733 20.0106 11.952C20.0106 13.328 19.8933 14.4533 19.6586 15.328C19.4346 16.2027 19.04 16.864 18.4746 17.312C17.9093 17.76 17.1253 17.984 16.1226 17.984C14.9813 17.984 14.1013 17.6853 13.4826 17.088C12.864 16.4907 12.5173 15.7387 12.4426 14.832H14.1226ZM16.1546 12.112C16.7946 12.112 17.296 11.9147 17.6586 11.52C18.032 11.1147 18.2186 10.5813 18.2186 9.92C18.2186 9.184 18.0213 8.61333 17.6266 8.208C17.2426 7.792 16.7146 7.584 16.0426 7.584C15.3706 7.584 14.8373 7.79733 14.4426 8.224C14.0586 8.64 13.8666 9.18933 13.8666 9.872C13.8666 10.5227 14.0533 11.0613 14.4266 11.488C14.8106 11.904 15.3866 12.112 16.1546 12.112ZM29.5269 7.904H24.1669V11.088C24.3909 10.7893 24.7215 10.5387 25.1589 10.336C25.6069 10.1333 26.0815 10.032 26.5829 10.032C27.4789 10.032 28.2042 10.224 28.7589 10.608C29.3242 10.992 29.7242 11.4773 29.9589 12.064C30.2042 12.6507 30.3269 13.2693 30.3269 13.92C30.3269 14.7093 30.1722 15.4133 29.8629 16.032C29.5642 16.64 29.1109 17.12 28.5029 17.472C27.9055 17.824 27.1695 18 26.2949 18C25.1322 18 24.1989 17.712 23.4949 17.136C22.7909 16.56 22.3695 15.7973 22.2309 14.848H24.0069C24.1242 15.3493 24.3855 15.7493 24.7909 16.048C25.1962 16.336 25.7029 16.48 26.3109 16.48C27.0682 16.48 27.6335 16.2507 28.0069 15.792C28.3909 15.3333 28.5829 14.7253 28.5829 13.968C28.5829 13.2 28.3909 12.6133 28.0069 12.208C27.6229 11.792 27.0575 11.584 26.3109 11.584C25.7882 11.584 25.3455 11.7173 24.9829 11.984C24.6309 12.24 24.3749 12.592 24.2149 13.04H22.4869V6.304H29.5269V7.904ZM32.2256 12.016C32.2256 10.1707 32.535 8.73067 33.1536 7.696C33.783 6.65067 34.8603 6.128 36.3856 6.128C37.911 6.128 38.983 6.65067 39.6016 7.696C40.231 8.73067 40.5456 10.1707 40.5456 12.016C40.5456 13.8827 40.231 15.344 39.6016 16.4C38.983 17.4453 37.911 17.968 36.3856 17.968C34.8603 17.968 33.783 17.4453 33.1536 16.4C32.535 15.344 32.2256 13.8827 32.2256 12.016ZM38.7536 12.016C38.7536 11.152 38.695 10.4213 38.5776 9.824C38.471 9.22667 38.247 8.74133 37.9056 8.368C37.5643 7.984 37.0576 7.792 36.3856 7.792C35.7136 7.792 35.207 7.984 34.8656 8.368C34.5243 8.74133 34.295 9.22667 34.1776 9.824C34.071 10.4213 34.0176 11.152 34.0176 12.016C34.0176 12.912 34.071 13.664 34.1776 14.272C34.2843 14.88 34.5083 15.3707 34.8496 15.744C35.2016 16.1173 35.7136 16.304 36.3856 16.304C37.0576 16.304 37.5643 16.1173 37.9056 15.744C38.2576 15.3707 38.487 14.88 38.5936 14.272C38.7003 13.664 38.7536 12.912 38.7536 12.016Z" fill="#999999"/>
<line x1="3" y1="11.5" x2="42" y2="11.5" stroke="#999999"/>
</svg>
